<svg xmlns="http://www.w3.org/2000/svg" xmlns:xlink="http://www.w3.org/1999/xlink" contentStyleType="text/css" height="583px" preserveAspectRatio="none" style="width:452px;height:583px;background:#FFFFFF;" version="1.1" viewBox="0 0 452 583" width="452px" zoomAndPan="magnify"><title>Ciclo de Vida da Mensagem na Fila SQS</title><defs/><g><text fill="#000000" font-family="sans-serif" font-size="14" font-weight="bold" lengthAdjust="spacing" textLength="266.0752" x="86.161" y="23.1318">Ciclo de Vida da Mensagem na Fila SQS</text><ellipse cx="184.96" cy="53.0986" fill="#222222" rx="10" ry="10" style="stroke:#222222;stroke-width:1.0;"/><g id="Disponivel"><rect fill="#ECF0F1" height="50" rx="12.5" ry="12.5" style="stroke:#34495E;stroke-width:0.5;" width="85.3652" x="142.28" y="139.0986"/><line style="stroke:#34495E;stroke-width:0.5;" x1="142.28" x2="227.6452" y1="165.1973" y2="165.1973"/><text fill="#000000" font-family="sans-serif" font-size="14" lengthAdjust="spacing" textLength="65.3652" x="152.28" y="157.2305">Dispon&#237;vel</text></g><g id="Invisivel"><rect fill="#ECF0F1" height="52.1973" rx="12.5" ry="12.5" style="stroke:#34495E;stroke-width:0.5;" width="143.7373" x="100.09" y="280.0986"/><line style="stroke:#34495E;stroke-width:0.5;" x1="100.09" x2="243.8273" y1="322.2959" y2="322.2959"/><text fill="#000000" font-family="sans-serif" font-size="14" lengthAdjust="spacing" textLength="50.5723" x="146.6725" y="298.2305">Invis&#237;vel</text><text fill="#000000" font-family="sans-serif" font-size="14" lengthAdjust="spacing" textLength="123.7373" x="110.09" y="314.3291">(sendo processada)</text></g><g id="Removida"><rect fill="#D5F5E3" height="50" rx="12.5" ry="12.5" style="stroke:#34495E;stroke-width:0.5;" width="83.0273" x="166.45" y="444.4886"/><line style="stroke:#34495E;stroke-width:0.5;" x1="166.45" x2="249.4773" y1="470.5873" y2="470.5873"/><text fill="#000000" font-family="sans-serif" font-size="14" lengthAdjust="spacing" textLength="63.0273" x="176.45" y="462.6205">Removida</text></g><g id="DLQ"><rect fill="#FADBD8" height="52.1973" rx="12.5" ry="12.5" style="stroke:#34495E;stroke-width:0.5;" width="100.165" x="288.88" y="362.2886"/><line style="stroke:#34495E;stroke-width:0.5;" x1="288.88" x2="389.045" y1="404.4859" y2="404.4859"/><text fill="#000000" font-family="sans-serif" font-size="14" lengthAdjust="spacing" textLength="28.7861" x="324.5695" y="380.4205">DLQ</text><text fill="#000000" font-family="sans-serif" font-size="14" lengthAdjust="spacing" textLength="80.165" x="298.88" y="396.5191">(quarentena)</text></g><ellipse cx="272.96" cy="566.4886" fill="none" rx="11" ry="11" style="stroke:#222222;stroke-width:1.0;"/><ellipse cx="272.96" cy="566.4886" fill="#222222" rx="6" ry="6" style="stroke:#222222;stroke-width:1.0;"/><!--link *start* to Disponivel--><g id="link_*start*_Disponivel"><path d="M184.96,63.3886 C184.96,79.9686 184.96,109.1286 184.96,132.9386 " fill="none" id="*start*-to-Disponivel" style="stroke:#2C3E50;stroke-width:1.0;"/><polygon fill="#2C3E50" points="184.96,138.9386,188.96,129.9386,184.96,133.9386,180.96,129.9386,184.96,138.9386" style="stroke:#2C3E50;stroke-width:1.0;"/><text fill="#000000" font-family="sans-serif" font-size="13" lengthAdjust="spacing" textLength="57.0718" x="185.96" y="106.2925">ENVIADA</text></g><!--link Disponivel to Invisivel--><g id="link_Disponivel_Invisivel"><path d="M141.78,167.0686 C105.32,171.2886 55.13,183.6686 29.96,219.0986 C6,252.8186 47.7647,274.0927 94.1547,287.7627 " fill="none" id="Disponivel-to-Invisivel" style="stroke:#2C3E50;stroke-width:1.0;"/><polygon fill="#2C3E50" points="99.91,289.4586,92.4077,283.0778,95.1139,288.0453,90.1464,290.7516,99.91,289.4586" style="stroke:#2C3E50;stroke-width:1.0;"/><text fill="#000000" font-family="sans-serif" font-size="13" lengthAdjust="spacing" textLength="110.5444" x="30.96" y="239.7925">receive_message()</text></g><!--link Invisivel to Disponivel--><g id="link_Invisivel_Disponivel"><path d="M174.33,279.6486 C176.71,253.9886 179.7938,220.7128 182.1438,195.4728 " fill="none" id="Invisivel-to-Disponivel" style="stroke:#2C3E50;stroke-width:1.0;"/><polygon fill="#2C3E50" points="182.7,189.4986,177.8829,198.0891,182.2365,194.4771,185.8484,198.8307,182.7,189.4986" style="stroke:#2C3E50;stroke-width:1.0;"/><text fill="#000000" font-family="sans-serif" font-size="13" lengthAdjust="spacing" textLength="58.4937" x="207.7408" y="232.2925">TIMEOUT</text><text fill="#000000" font-family="sans-serif" font-size="13" lengthAdjust="spacing" textLength="112.7153" x="180.63" y="247.2412">(falha / travamento)</text></g><!--link Invisivel to Removida--><g id="link_Invisivel_Removida"><path d="M162.18,332.7586 C155.2,355.0486 148.69,387.8786 158.96,414.4886 C163.2,425.4686 166.7077,431.239 174.6977,439.689 " fill="none" id="Invisivel-to-Removida" style="stroke:#2C3E50;stroke-width:1.0;"/><polygon fill="#2C3E50" points="178.82,444.0486,175.543,434.761,175.3847,440.4156,169.7301,440.2574,178.82,444.0486" style="stroke:#2C3E50;stroke-width:1.0;"/><text fill="#000000" font-family="sans-serif" font-size="13" lengthAdjust="spacing" textLength="110.5317" x="159.96" y="393.5825">DELETE (sucesso)</text></g><!--link Disponivel to DLQ--><g id="link_Disponivel_DLQ"><path d="M228.01,175.2586 C252.56,183.2186 281.94,196.7986 299.96,219.0986 C333.61,260.7286 339.2413,320.1289 339.5913,355.9089 " fill="none" id="Disponivel-to-DLQ" style="stroke:#2C3E50;stroke-width:1.0;"/><polygon fill="#2C3E50" points="339.65,361.9086,343.5618,352.8699,339.6011,356.9089,335.5622,352.9482,339.65,361.9086" style="stroke:#2C3E50;stroke-width:1.0;"/><text fill="#000000" font-family="sans-serif" font-size="13" lengthAdjust="spacing" textLength="100.4453" x="331.1359" y="232.2925">ap&#243;s N tentativas</text><text fill="#000000" font-family="sans-serif" font-size="13" lengthAdjust="spacing" textLength="126.0771" x="318.32" y="247.2412">(&gt; maxReceiveCount)</text></g><!--link Removida to *end*--><g id="link_Removida_*end*"><path d="M224.7,494.9486 C238.69,515.4086 254.4423,538.4165 263.8623,552.1865 " fill="none" id="Removida-to-*end*" style="stroke:#2C3E50;stroke-width:1.0;"/><polygon fill="#2C3E50" points="267.25,557.1386,265.4698,547.452,264.4269,553.0119,258.867,551.9689,267.25,557.1386" style="stroke:#2C3E50;stroke-width:1.0;"/></g><!--link DLQ to *end*--><g id="link_DLQ_*end*"><path d="M329.5,414.6186 C314.68,454.1786 288.7251,523.4301 278.7251,550.1201 " fill="none" id="DLQ-to-*end*" style="stroke:#2C3E50;stroke-width:1.0;"/><polygon fill="#2C3E50" points="276.62,555.7386,283.5234,548.7142,278.3743,551.0565,276.032,545.9073,276.62,555.7386" style="stroke:#2C3E50;stroke-width:1.0;"/></g><!--SRC=[NP7TJi9048NlzoacSWCcH1IQA1SaG4j20XX-v4QDcRG3R6Xtwsuf9iP7yif7uCMSvSzAqeljd7Dsljd9P1OJT6KOQuW8vZ92u6z8okAI4b08FHaZJCTJ8UnQgXGD9c1N6EcjL4jOO6ofg6IO4NmAW0w6wwNH6nLrTQmDb2XSr1QtJj4c8dEirXkD1u-usZP6Ru_5kx1ENary2V5y_GhLQWjyQLEjP4unD24OpVjjloqEpQuEskwRnIj0M_2U77sLIxitlAYo9HLfI8qEoLgCiB8FxIt5p8GIdVDxxDNJ3vHyh-S5zNFhmPXlVD-W8PMHEjx5LIZrsdx7lnUYGEu6EVVXEGo5nCUtn84igLmHVwhpdhismGy6mIo0ijquQdtf_FSyi_umU7oQCHXlPuLm0vd171D6vE05ZsDj0gQx7miZu1buC9cZvNGB4loO71YxlCYi8iGPoMLvESBbJ-TV]--></g></svg>