<svg xmlns="http://www.w3.org/2000/svg" xmlns:xlink="http://www.w3.org/1999/xlink" contentStyleType="text/css" height="245px" preserveAspectRatio="none" style="width:812px;height:245px;background:#FFFFFF;" version="1.1" viewBox="0 0 812 245" width="812px" zoomAndPan="magnify"><title>Comunica&#231;&#227;o Indireta com Amazon SQS &#8212; Diagrama de Componentes</title><defs/><g><text fill="#000000" font-family="sans-serif" font-size="14" font-weight="bold" lengthAdjust="spacing" textLength="473.7646" x="162.1479" y="23.1318">Comunica&#231;&#227;o Indireta com Amazon SQS &#8212; Diagrama de Componentes</text><!--entity Produtor--><g id="elem_Produtor"><rect fill="#D6EAF8" height="52.1973" rx="2.5" ry="2.5" style="stroke:#34495E;stroke-width:0.5;" width="125.8066" x="7" y="44.0986"/><text fill="#000000" font-family="sans-serif" font-size="14" lengthAdjust="spacing" textLength="53.6963" x="43.0552" y="67.2305">Produtor</text><text fill="#000000" font-family="sans-serif" font-size="14" lengthAdjust="spacing" textLength="105.8066" x="17" y="83.3291">(src/producer.py)</text></g><!--entity Fila--><g id="elem_Fila"><path d="M269.88,49.0986 L391.9347,49.0986 C396.9347,49.0986 396.9347,70.1973 396.9347,70.1973 C396.9347,70.1973 396.9347,91.2959 391.9347,91.2959 L269.88,91.2959 C264.88,91.2959 264.88,70.1973 264.88,70.1973 C264.88,70.1973 264.88,49.0986 269.88,49.0986 " fill="#FCF3CF" style="stroke:#181818;stroke-width:0.5;"/><path d="M391.9347,49.0986 C386.9347,49.0986 386.9347,70.1973 386.9347,70.1973 C386.9347,91.2959 391.9347,91.2959 391.9347,91.2959 " fill="none" style="stroke:#181818;stroke-width:0.5;"/><text fill="#000000" font-family="sans-serif" font-size="14" lengthAdjust="spacing" textLength="105.0273" x="273.3937" y="67.2305">Fila SQS (buffer)</text><text fill="#000000" font-family="sans-serif" font-size="14" lengthAdjust="spacing" textLength="112.0547" x="269.88" y="83.3291">Standard ou FIFO</text></g><!--entity Consumidor--><g id="elem_Consumidor"><rect fill="#D5F5E3" height="52.1973" rx="2.5" ry="2.5" style="stroke:#34495E;stroke-width:0.5;" width="132.0205" x="103.89" y="187.2886"/><text fill="#000000" font-family="sans-serif" font-size="14" lengthAdjust="spacing" textLength="75.4756" x="132.1625" y="210.4205">Consumidor</text><text fill="#000000" font-family="sans-serif" font-size="14" lengthAdjust="spacing" textLength="112.0205" x="113.89" y="226.5191">(src/consumer.py)</text></g><!--entity DLQ--><g id="elem_DLQ"><path d="M338.98,192.2886 L468.8345,192.2886 C473.8345,192.2886 473.8345,213.3873 473.8345,213.3873 C473.8345,213.3873 473.8345,234.4859 468.8345,234.4859 L338.98,234.4859 C333.98,234.4859 333.98,213.3873 333.98,213.3873 C333.98,213.3873 333.98,192.2886 338.98,192.2886 " fill="#FADBD8" style="stroke:#181818;stroke-width:0.5;"/><path d="M468.8345,192.2886 C463.8345,192.2886 463.8345,213.3873 463.8345,213.3873 C463.8345,234.4859 468.8345,234.4859 468.8345,234.4859 " fill="none" style="stroke:#181818;stroke-width:0.5;"/><text fill="#000000" font-family="sans-serif" font-size="14" lengthAdjust="spacing" textLength="119.8545" x="338.98" y="210.4205">Dead-Letter Queue</text><text fill="#000000" font-family="sans-serif" font-size="14" lengthAdjust="spacing" textLength="67.6895" x="365.0625" y="226.5191">(demo-dlq)</text></g><g id="elem_GMN11"><path d="M508.75,193.4386 L508.75,233.3361 L805.0605,233.3361 L805.0605,203.4386 L795.0605,193.4386 L508.75,193.4386 " fill="#FEFFDD" style="stroke:#181818;stroke-width:0.5;"/><path d="M795.0605,193.4386 L795.0605,203.4386 L805.0605,203.4386 L795.0605,193.4386 " fill="#FEFFDD" style="stroke:#181818;stroke-width:1.0;"/><text fill="#000000" font-family="sans-serif" font-size="13" lengthAdjust="spacing" textLength="275.3105" x="514.75" y="210.6325">O produtor nunca fala direto com o consumidor:</text><text fill="#000000" font-family="sans-serif" font-size="13" lengthAdjust="spacing" textLength="248.6187" x="528.0959" y="225.5812">a fila &#233; o &#250;nico ponto de contato entre eles.</text></g><!--link Produtor to Fila--><g id="link_Produtor_Fila"><path d="M133.08,70.1886 C172.91,70.1886 218.26,70.1886 258.66,70.1886 " fill="none" id="Produtor-to-Fila" style="stroke:#2C3E50;stroke-width:1.0;"/><polygon fill="#2C3E50" points="264.66,70.1886,255.66,66.1886,259.66,70.1886,255.66,74.1886,264.66,70.1886" style="stroke:#2C3E50;stroke-width:1.0;"/><text fill="#000000" font-family="sans-serif" font-size="13" lengthAdjust="spacing" textLength="96.8271" x="150.84" y="64.3825">send_message()</text></g><!--link Fila to Consumidor--><g id="link_Fila_Consumidor"><path d="M264.43,78.1986 C204.47,86.0486 122.74,101.0886 102.9,126.2886 C86.85,146.6786 102.4122,166.253 124.7722,183.433 " fill="none" id="Fila-to-Consumidor" style="stroke:#2C3E50;stroke-width:1.0;"/><polygon fill="#2C3E50" points="129.53,187.0886,124.8304,178.4334,125.5652,184.0423,119.9562,184.7771,129.53,187.0886" style="stroke:#2C3E50;stroke-width:1.0;"/><text fill="#000000" font-family="sans-serif" font-size="13" lengthAdjust="spacing" textLength="110.5444" x="103.9" y="139.4825">receive_message()</text><text fill="#000000" font-family="sans-serif" font-size="13" lengthAdjust="spacing" textLength="74.4326" x="121.9559" y="154.4312">(long polling)</text></g><!--reverse link Fila to Consumidor--><g id="link_Fila_Consumidor"><path d="M292.8176,94.9765 C277.9376,104.7665 265.49,113.7686 250.9,126.2886 C238.91,136.5886 212.04,165.6486 192.52,187.1786 " fill="none" id="Fila-backto-Consumidor" style="stroke:#2C3E50;stroke-width:1.0;"/><polygon fill="#2C3E50" points="297.83,91.6786,288.1128,93.2838,293.653,94.4268,292.5099,99.967,297.83,91.6786" style="stroke:#2C3E50;stroke-width:1.0;"/><text fill="#000000" font-family="sans-serif" font-size="13" lengthAdjust="spacing" textLength="104.0571" x="251.9" y="139.4825">delete_message()</text><text fill="#000000" font-family="sans-serif" font-size="13" lengthAdjust="spacing" textLength="97.5381" x="255.1595" y="154.4312">(ap&#243;s processar)</text></g><!--link Fila to DLQ--><g id="link_Fila_DLQ"><path d="M344.46,91.7586 C350.96,101.9586 358.67,114.5786 364.9,126.2886 C376.55,148.1686 385.6863,168.6611 393.1463,186.3311 " fill="none" id="Fila-to-DLQ" style="stroke:#2C3E50;stroke-width:1.0;"/><polygon fill="#2C3E50" points="395.48,191.8586,395.6646,182.0115,393.5353,187.2523,388.2945,185.123,395.48,191.8586" style="stroke:#2C3E50;stroke-width:1.0;"/><text fill="#000000" font-family="sans-serif" font-size="13" lengthAdjust="spacing" textLength="149.2207" x="384.9484" y="139.4825">falha &gt; maxReceiveCount</text><text fill="#000000" font-family="sans-serif" font-size="13" lengthAdjust="spacing" textLength="157.3774" x="380.87" y="154.4312">(mensagem "envenenada")</text></g><!--link Fila to GMN11--><g id="link_Fila_GMN11"><path d="M397.17,80.7686 C441.23,88.8686 499.5,102.9886 546.9,126.2886 C582.16,143.6286 616.84,173.4986 637.56,193.0986 " fill="none" id="Fila-GMN11" style="stroke:#2C3E50;stroke-width:1.0;stroke-dasharray:7.0,7.0;"/></g><!--SRC=[RLCxRjj04Ett50EfaGevJcG5ZWe3Cca21WmuYb8Q2CQxGuhmSfVUZp-fSeZS84MGEbrQtIGdoInbIGpWXbZEl3Tllg4EcY2pJJIrnCtFpGyBbqRLZWA2j0qi6lng3QoMA_ZxxJlaDLOE6mJLiLfho0JoGlYxshJ8hiJQcbVXcMCxaW5DfQa7yMjKzh4s5PIeVT-ZgCIemsTw2WjTLwRXE22JXkkX5ixPnyngws3uJavfTloQ_ZdAkyhPQDGBb6HvNBvz5MgT8lS2cvwSV9YH47il33uwgsAmxiQCl9DlslGhoHsrp-C1e8UT7uRv-uj5SIhk8qM2GL5hx7etkerbIMvyOrRS3OLEWOrGN1RN7R_33Okic6P5NpUpniUcLdjbsHbwoWS4Qy-AsSLqfvqJgiaL1MuTB9E9GoXgx4Jf-oqtlrgow28_pq-5s9SmSNMr3fEpRL9py6JKbuQynuf6Oz5PzvYU_3oDcke7Ee1PKLkUSckrvccFHGy-YUr1Gv6cy3yHsyrl3znfcOnk9ynxOvYNKf-dxLaZd463Jv-ssXcFEp2RzoP5Qc10ve6ucQXmC1R2s41mQqFWrRPb9oy0hg7TLM-YaPW2yugdAx3T5QJlBlCv4nYHijdyOi_c3v-EvHeDW_ai61cGdpn0Hy25-IF1BOGaBVu1]--></g></svg>