<svg xmlns="http://www.w3.org/2000/svg" xmlns:xlink="http://www.w3.org/1999/xlink" contentStyleType="text/css" height="350px" preserveAspectRatio="none" style="width:491px;height:350px;background:#FFFFFF;" version="1.1" viewBox="0 0 491 350" width="491px" zoomAndPan="magnify"><title>Diagrama de Sequ&#234;ncia &#8212; Envio e Consumo de Mensagem</title><defs/><g><text fill="#000000" font-family="sans-serif" font-size="14" font-weight="bold" lengthAdjust="spacing" textLength="394.4404" x="55.5828" y="28.1318">Diagrama de Sequ&#234;ncia &#8212; Envio e Consumo de Mensagem</text><rect fill="#FFFFFF" height="158.6924" style="stroke:#181818;stroke-width:1.0;" width="10" x="154.6753" y="104.146"/><rect fill="#FFFFFF" height="85.8462" style="stroke:#181818;stroke-width:1.0;" width="10" x="330.3315" y="176.9922"/><line style="stroke:#181818;stroke-width:0.5;stroke-dasharray:5.0,5.0;" x1="38" x2="38" y1="73.1973" y2="315.7871"/><line style="stroke:#181818;stroke-width:0.5;stroke-dasharray:5.0,5.0;" x1="159.041" x2="159.041" y1="73.1973" y2="315.7871"/><line style="stroke:#181818;stroke-width:0.5;stroke-dasharray:5.0,5.0;" x1="334.5938" x2="334.5938" y1="73.1973" y2="315.7871"/><rect fill="#ECF0F1" height="30.0986" rx="2.5" ry="2.5" style="stroke:#34495E;stroke-width:0.5;" width="67.6963" x="5" y="42.0986"/><text fill="#000000" font-family="sans-serif" font-size="14" lengthAdjust="spacing" textLength="53.6963" x="12" y="62.2305">Produtor</text><rect fill="#ECF0F1" height="30.0986" rx="2.5" ry="2.5" style="stroke:#34495E;stroke-width:0.5;" width="67.6963" x="5" y="314.7871"/><text fill="#000000" font-family="sans-serif" font-size="14" lengthAdjust="spacing" textLength="53.6963" x="12" y="334.9189">Produtor</text><rect fill="#ECF0F1" height="30.0986" rx="2.5" ry="2.5" style="stroke:#34495E;stroke-width:0.5;" width="97.2686" x="111.041" y="42.0986"/><text fill="#000000" font-family="sans-serif" font-size="14" lengthAdjust="spacing" textLength="83.2686" x="118.041" y="62.2305">Fila Standard</text><rect fill="#ECF0F1" height="30.0986" rx="2.5" ry="2.5" style="stroke:#34495E;stroke-width:0.5;" width="97.2686" x="111.041" y="314.7871"/><text fill="#000000" font-family="sans-serif" font-size="14" lengthAdjust="spacing" textLength="83.2686" x="118.041" y="334.9189">Fila Standard</text><rect fill="#ECF0F1" height="30.0986" rx="2.5" ry="2.5" style="stroke:#34495E;stroke-width:0.5;" width="89.4756" x="290.5938" y="42.0986"/><text fill="#000000" font-family="sans-serif" font-size="14" lengthAdjust="spacing" textLength="75.4756" x="297.5938" y="62.2305">Consumidor</text><rect fill="#ECF0F1" height="30.0986" rx="2.5" ry="2.5" style="stroke:#34495E;stroke-width:0.5;" width="89.4756" x="290.5938" y="314.7871"/><text fill="#000000" font-family="sans-serif" font-size="14" lengthAdjust="spacing" textLength="75.4756" x="297.5938" y="334.9189">Consumidor</text><rect fill="#FFFFFF" height="158.6924" style="stroke:#181818;stroke-width:1.0;" width="10" x="154.6753" y="104.146"/><rect fill="#FFFFFF" height="85.8462" style="stroke:#181818;stroke-width:1.0;" width="10" x="330.3315" y="176.9922"/><polygon fill="#2C3E50" points="142.6753,100.146,152.6753,104.146,142.6753,108.146,146.6753,104.146" style="stroke:#2C3E50;stroke-width:1.0;"/><line style="stroke:#2C3E50;stroke-width:1.0;" x1="38.8481" x2="148.6753" y1="104.146" y2="104.146"/><text fill="#000000" font-family="sans-serif" font-size="13" lengthAdjust="spacing" textLength="96.8271" x="48.3481" y="99.3911">send_message()</text><polygon fill="#2C3E50" points="175.6753,144.0435,165.6753,148.0435,175.6753,152.0435,171.6753,148.0435" style="stroke:#2C3E50;stroke-width:1.0;"/><line style="stroke:#2C3E50;stroke-width:1.0;" x1="169.6753" x2="334.3315" y1="148.0435" y2="148.0435"/><text fill="#000000" font-family="sans-serif" font-size="13" lengthAdjust="spacing" textLength="110.5444" x="194.7312" y="128.3398">receive_message()</text><text fill="#000000" font-family="sans-serif" font-size="13" lengthAdjust="spacing" textLength="124.2998" x="187.8535" y="143.2886">(long polling, at&#233; 10s)</text><polygon fill="#2C3E50" points="318.3315,172.9922,328.3315,176.9922,318.3315,180.9922,322.3315,176.9922" style="stroke:#2C3E50;stroke-width:1.0;"/><line style="stroke:#2C3E50;stroke-width:1.0;stroke-dasharray:2.0,2.0;" x1="164.6753" x2="324.3315" y1="176.9922" y2="176.9922"/><text fill="#000000" font-family="sans-serif" font-size="13" lengthAdjust="spacing" textLength="146.6563" x="174.1753" y="172.2373">mensagem (fica invis&#237;vel)</text><line style="stroke:#2C3E50;stroke-width:1.0;" x1="340.3315" x2="382.3315" y1="205.9409" y2="205.9409"/><line style="stroke:#2C3E50;stroke-width:1.0;" x1="382.3315" x2="382.3315" y1="205.9409" y2="218.9409"/><line style="stroke:#2C3E50;stroke-width:1.0;" x1="341.3315" x2="382.3315" y1="218.9409" y2="218.9409"/><polygon fill="#2C3E50" points="351.3315,214.9409,341.3315,218.9409,351.3315,222.9409,347.3315,218.9409" style="stroke:#2C3E50;stroke-width:1.0;"/><text fill="#000000" font-family="sans-serif" font-size="13" lengthAdjust="spacing" textLength="137.2744" x="347.3315" y="201.186">processar_mensagem()</text><polygon fill="#2C3E50" points="170.6753,258.8384,160.6753,262.8384,170.6753,266.8384,166.6753,262.8384" style="stroke:#2C3E50;stroke-width:1.0;"/><line style="stroke:#2C3E50;stroke-width:1.0;" x1="164.6753" x2="334.3315" y1="262.8384" y2="262.8384"/><text fill="#000000" font-family="sans-serif" font-size="13" lengthAdjust="spacing" textLength="104.0571" x="195.4749" y="243.1348">delete_message()</text><text fill="#000000" font-family="sans-serif" font-size="13" lengthAdjust="spacing" textLength="109.8081" x="192.5994" y="258.0835">(confirma sucesso)</text><path d="M88,275.8384 L88,299.8384 L230,299.8384 L230,285.8384 L220,275.8384 L88,275.8384 " fill="#FEFFDD" style="stroke:#181818;stroke-width:0.5;"/><path d="M220,275.8384 L220,285.8384 L230,285.8384 L220,275.8384 " fill="#FEFFDD" style="stroke:#181818;stroke-width:0.5;"/><text fill="#000000" font-family="sans-serif" font-size="13" lengthAdjust="spacing" textLength="121.3862" x="94" y="293.0322">mensagem removida</text><!--SRC=[TP9DJiGm34RtEOK5cna9f1b-5h106WhT8Ot45WbPYLiiqhWuQTbo22u14gUOct0IKYXCPy4g2xzdEr-IE7c2AyPQiK5m1BVqr6tUWsM4pvTNk0uz2n0K4cBNo43SK8XOKsDCVEJGOZOXFg2JPmurLEWZJIkv7mLBDnG7Q-Mv3c0f9D89jKPDRBd5a2xHFjOgNN25U57O9rijgkK_iAWZ7S7ZavEpq-dibQeyZyKZUqod2sFQhGnxQnNN9T4zm0ZhtLh97k4sON2exXieTu6VIDYDUc7C6Wule8JpVEdWxfkV6y_c1ctY7XFb3gRuPPGiSKzRx2xClEG4M_4-9ta0c3Pli5p4kIdXC5j5jfenV9XLR14uFq_SVFJa9rEASSh0jofs6A3tlsRUPxk48qzfTmSheMBDdo5sWobpusZIEaW-f2Vzzl_MKMgaPuTJk3HV]--></g></svg>